<?xml version="1.0" encoding="UTF-8" standalone="no"?>
<svg width="64px" height="43px" viewBox="0 0 64 43" version="1.1" xmlns="http://www.w3.org/2000/svg" xmlns:xlink="http://www.w3.org/1999/xlink" xmlns:sketch="http://www.bohemiancoding.com/sketch/ns">
    <!-- Generator: Sketch 3.2.2 (9983) - http://www.bohemiancoding.com/sketch -->
    <title>IDE</title>
    <desc>Created with Sketch.</desc>
    <defs></defs>
    <g id="Page-1" stroke="none" stroke-width="1" fill="none" fill-rule="evenodd" sketch:type="MSPage">
        <g id="Inicio" sketch:type="MSArtboardGroup" transform="translate(-1103.000000, -790.000000)">
            <g id="Servicios" sketch:type="MSLayerGroup" transform="translate(120.000000, 745.000000)">
                <g id="Lorem-ipsum-dolor-si-+-DESARROLLO-+-Oval-6-+-IDE" transform="translate(828.000000, 0.000000)" sketch:type="MSShapeGroup">
                    <g id="Oval-6-+-IDE" transform="translate(120.000000, 0.000000)">
                        <g id="IDE" transform="translate(36.000000, 46.000000)">
                            <path d="M0,0 L62,0 L62,41 L0,41 L0,0 Z M0,6 L62,6 L0,6 Z" id="Stroke-1" stroke="#7E89A3" stroke-width="2"></path>
                            <path d="M4.85,2.883 C4.85,3.417 4.417,3.85 3.883,3.85 C3.349,3.85 2.917,3.417 2.917,2.883 C2.917,2.349 3.349,1.917 3.883,1.917 C4.417,1.917 4.85,2.349 4.85,2.883" id="Fill-2" fill="#7E89A3"></path>
                            <path d="M7.85,2.883 C7.85,3.417 7.417,3.85 6.883,3.85 C6.349,3.85 5.917,3.417 5.917,2.883 C5.917,2.349 6.349,1.917 6.883,1.917 C7.417,1.917 7.85,2.349 7.85,2.883" id="Fill-3" fill="#7E89A3"></path>
                            <path d="M10.85,2.883 C10.85,3.417 10.417,3.85 9.883,3.85 C9.349,3.85 8.917,3.417 8.917,2.883 C8.917,2.349 9.349,1.917 9.883,1.917 C10.417,1.917 10.85,2.349 10.85,2.883" id="Fill-4" fill="#7E89A3"></path>
                            <path d="M47.635,34.211 L47.635,35.869 L41.74,33.315 L41.74,31.897 L47.635,29.342 L47.635,31.012 L43.527,32.594 L47.635,34.211" id="Fill-5" fill="#7E89A3"></path>
                            <path d="M51.279,29.307 L49.639,36.063 C49.584,36.285 49.536,36.461 49.495,36.59 C49.454,36.719 49.392,36.819 49.308,36.892 C49.224,36.964 49.102,37 48.941,37 C48.543,37 48.344,36.828 48.344,36.484 C48.344,36.395 48.383,36.17 48.461,35.81 L50.096,29.055 C50.182,28.695 50.264,28.449 50.342,28.316 C50.42,28.184 50.572,28.117 50.799,28.117 C50.994,28.117 51.144,28.164 51.247,28.258 C51.351,28.352 51.402,28.481 51.402,28.645 C51.402,28.766 51.361,28.986 51.279,29.307" id="Fill-6" fill="#7E89A3"></path>
                            <path d="M58,33.315 L52.105,35.881 L52.105,34.223 L56.225,32.606 L52.105,31.012 L52.105,29.365 L58,31.908 L58,33.315" id="Fill-7" fill="#7E89A3"></path>
                            <path d="M4,10 L58,10 L58,13 L4,13 L4,10 Z" id="Fill-8" fill="#7E89A3"></path>
                            <path d="M4,16 L58,16 L58,19 L4,19 L4,16 Z" id="Fill-9" fill="#7E89A3"></path>
                            <path d="M4,22 L58,22 L58,25 L4,25 L4,22 Z" id="Fill-10" fill="#7E89A3"></path>
                        </g>
                    </g>
                </g>
            </g>
        </g>
    </g>
</svg>