<?xml version="1.0" encoding="UTF-8" standalone="no"?>
<svg width="64px" height="47px" viewBox="0 0 64 47" version="1.1" xmlns="http://www.w3.org/2000/svg" xmlns:xlink="http://www.w3.org/1999/xlink" xmlns:sketch="http://www.bohemiancoding.com/sketch/ns">
    <!-- Generator: Sketch 3.2.2 (9983) - http://www.bohemiancoding.com/sketch -->
    <title>Stroke 1</title>
    <desc>Created with Sketch.</desc>
    <defs></defs>
    <g id="Page-1" stroke="none" stroke-width="1" fill="none" fill-rule="evenodd" sketch:type="MSPage">
        <g id="Inicio" sketch:type="MSArtboardGroup" transform="translate(-690.000000, -787.000000)" stroke="#7E89A3" stroke-width="2">
            <g id="Servicios" sketch:type="MSLayerGroup" transform="translate(120.000000, 745.000000)">
                <g id="Lorem-ipsum-dolor-si-+-DISEÑO-+-Oval-6-+-Laptop" transform="translate(415.000000, 0.000000)" sketch:type="MSShapeGroup">
                    <g id="Oval-6-+-Laptop" transform="translate(120.000000, 0.000000)">
                        <g id="Laptop" transform="translate(36.000000, 43.000000)">
                            <path d="M60,36.292 C60,37.788 58.788,39 57.292,39 L4.708,39 C3.212,39 2,37.788 2,36.292 L2,2.708 C2,1.212 3.212,0 4.708,0 L57.292,0 C58.788,0 60,1.212 60,2.708 L60,36.292 L60,36.292 Z M0,39 L62,39 L62,45 L0,45 L0,39 Z M6,4 L56,4 L56,35 L6,35 L6,4 Z" id="Stroke-1"></path>
                        </g>
                    </g>
                </g>
            </g>
        </g>
    </g>
</svg>