<?xml version="1.0" encoding="UTF-8" standalone="no"?>
<svg width="214px" height="57px" viewBox="0 0 214 57" version="1.1" xmlns="http://www.w3.org/2000/svg" xmlns:xlink="http://www.w3.org/1999/xlink">
    <!-- Generator: Sketch 3.6.1 (26313) - http://www.bohemiancoding.com/sketch -->
    <title>logo-header</title>
    <desc>Created with Sketch.</desc>
    <defs></defs>
    <g id="Page-1" stroke="none" stroke-width="1" fill="none" fill-rule="evenodd">
        <g id="HomeAPK-2-Copy" transform="translate(-810.000000, -67.000000)">
            <g id="logo-header" transform="translate(810.000000, 67.000000)">
                <path d="M0.134169279,28.4987076 C0.134169279,12.9289595 12.7447725,0.304343422 28.2913923,0.304343422 C43.841939,0.304343422 56.4499243,12.9289595 56.4499243,28.4987076 C56.4499243,44.0697664 43.841939,56.6943825 28.2913923,56.6943825 C12.7447725,56.6943825 0.134169279,44.0697664 0.134169279,28.4987076" id="Fill-22" fill="#95C11F"></path>
                <path d="M21.5749437,29.4624618 C21.5749437,27.5147687 23.1509418,25.9340703 25.0934512,25.9340703 L35.0115061,25.9340703 L35.0115061,27.5318078 C35.0115061,29.4755687 33.4341989,31.0575778 31.4916896,31.0575778 L21.5749437,31.0575778 L21.5749437,29.4624618 Z M31.4916896,34.9044682 C35.5481832,34.9044682 38.8533288,31.5949628 38.8533288,27.5318078 L38.8533288,20.4920639 C38.8533288,16.4249767 35.5481832,13.1154714 31.4916896,13.1154714 L23.4978185,13.1154714 L19.6507598,13.1154714 C19.6507598,15.2440404 21.3707446,16.9715366 23.4978185,16.9715366 L23.4978185,16.9636725 L31.4916896,16.9636725 C33.4341989,16.9636725 35.0115061,18.5456816 35.0115061,20.4920639 L35.0115061,22.0858693 L25.0934512,22.0858693 C21.0382665,22.0858693 17.7318119,25.3940639 17.7318119,29.4624618 L17.7318119,36.4982735 C17.7318119,40.5653607 21.0382665,43.874866 25.0934512,43.874866 L33.0873223,43.874866 L33.0873223,43.8814195 C35.2052334,43.8814195 36.9343809,42.1565447 36.9343809,40.0279757 L33.0873223,40.0279757 L25.0934512,40.0279757 C23.1509418,40.0279757 21.5749437,38.4459666 21.5749437,36.4982735 L21.5749437,34.9044682 L31.4916896,34.9044682 Z" id="Fill-23" fill="#FEFEFE"></path>
                <path d="M204.338372,23.1540858 C202.850075,23.1540858 201.636661,24.370411 201.636661,25.8672249 L201.636661,31.2751532 C201.636661,32.768035 202.850075,33.9843602 204.338372,33.9843602 L207.860806,33.9843602 C209.353031,33.9843602 210.57168,32.768035 210.57168,31.2751532 L210.57168,25.8672249 C210.57168,24.370411 209.353031,23.1540858 207.860806,23.1540858 L204.338372,23.1540858 Z M207.860806,36.9399778 L204.338372,36.9399778 C201.2191,36.9399778 198.684937,34.3985398 198.684937,31.2751532 L198.684937,25.8672249 C198.684937,22.7412168 201.2191,20.1997789 204.338372,20.1997789 L207.860806,20.1997789 C210.980079,20.1997789 213.519478,22.7412168 213.519478,25.8672249 L213.519478,31.2751532 C213.519478,34.3985398 210.980079,36.9399778 207.860806,36.9399778 L207.860806,36.9399778 Z" id="Fill-24" fill="#878786"></path>
                <path d="M196.154177,36.9157299 L193.202453,36.9157299 L193.202453,25.6293337 L196.154177,25.6293337 L196.154177,36.9157299 Z" id="Fill-25" fill="#878786"></path>
                <path d="M79.0008349,31.3414744 C79.0008349,32.8382883 77.7821852,34.0624776 76.2873431,34.0624776 L71.3499136,34.0624776 C69.8786329,34.0624776 68.6324948,33.1541658 68.6324948,32.0807065 C68.6324948,31.0138006 69.8786329,30.1054888 71.3499136,30.1054888 L79.0008349,30.1054888 L79.0008349,31.3414744 Z M76.2873431,20.2228471 L70.2595428,20.2228471 L67.2894931,20.2228471 C67.2894931,21.8599054 68.6207141,23.1889503 70.2595428,23.1889503 L70.2595428,23.1850182 L76.2873431,23.1850182 C77.7821852,23.1850182 79.0008349,24.4052755 79.0008349,25.9073321 L79.0008349,27.1433177 L71.3499136,27.1433177 C68.2162428,27.1433177 65.667681,29.3570819 65.667681,32.0807065 C65.667681,34.8108845 68.2162428,37.0298915 71.3499136,37.0298915 L76.2873431,37.0298915 C79.4170869,37.0298915 81.9682667,34.4766573 81.9682667,31.3414744 L81.9682667,25.9073321 C81.9682667,22.7721493 79.4170869,20.2228471 76.2873431,20.2228471 L76.2873431,20.2228471 Z" id="Fill-26" fill="#1D1C1B"></path>
                <path d="M94.313542,31.3414744 C94.313542,32.8382883 93.0948923,34.0624776 91.5921963,34.0624776 L86.3314516,34.0624776 L86.3314516,25.9073321 C86.3314516,24.4052755 87.5474834,23.1850182 89.0462525,23.1850182 L91.5921963,23.1850182 C93.0948923,23.1850182 94.313542,24.4052755 94.313542,25.9073321 L94.313542,31.3414744 Z M91.5921963,20.2228471 L89.0462525,20.2228471 C85.9151996,20.2228471 83.3705647,22.7721493 83.3705647,25.9073321 L83.3705647,38.507045 L83.3705647,41.4810124 C85.0054665,41.4810124 86.3353785,40.1480353 86.3353785,38.507045 L86.3314516,38.507045 L86.3314516,37.0298915 L91.5921963,37.0298915 C94.7258671,37.0298915 97.2770469,34.4766573 97.2770469,31.3414744 L97.2770469,25.9073321 C97.2770469,22.7721493 94.7258671,20.2228471 91.5921963,20.2228471 L91.5921963,20.2228471 Z" id="Fill-27" fill="#1D1C1B"></path>
                <path d="M111.851627,24.4212659 L111.851627,20.2217986 L108.888122,20.2217986 L108.888122,24.4212659 C108.888122,25.9180798 107.670781,27.1435798 106.17463,27.1435798 L101.729373,27.1435798 L101.729373,18.7420237 L101.733299,18.7420237 C101.733299,17.0957905 100.409932,15.7667456 98.7658677,15.7667456 L98.7658677,18.7420237 L98.7658677,36.98559 L101.729373,36.98559 L101.729373,30.1044403 L106.17463,30.1044403 C107.670781,30.1044403 108.888122,31.3260082 108.888122,32.8228221 L108.888122,37.0262216 L111.851627,37.0262216 L111.851627,32.8228221 C111.851627,31.1621713 111.127767,29.6640467 109.986346,28.6246654 C111.127767,27.5879055 111.851627,26.0858488 111.851627,24.4212659" id="Fill-28" fill="#1D1C1B"></path>
                <path d="M128.420813,27.0919384 L120.79738,27.0919384 L120.79738,25.8677491 C120.79738,24.3709352 122.012102,23.1546101 123.506945,23.1546101 L128.420813,23.1546101 C129.884239,23.1546101 131.125142,24.0550577 131.125142,25.1232743 C131.125142,26.1914909 129.884239,27.0919384 128.420813,27.0919384 M128.420813,20.1989925 L123.506945,20.1989925 C120.383746,20.1989925 117.845655,22.7417411 117.845655,25.8677491 L117.845655,31.2743668 C117.845655,34.3977534 120.383746,36.9405021 123.506945,36.9405021 L129.505948,36.9405021 L132.461599,36.9405021 C132.461599,35.3060652 131.134304,33.9809524 129.505948,33.9809524 L129.505948,33.9848844 L123.506945,33.9848844 C122.012102,33.9848844 120.79738,32.7685593 120.79738,31.2743668 L120.79738,30.0475561 L128.420813,30.0475561 C131.534849,30.0475561 134.076866,27.8403454 134.076866,25.1232743 C134.076866,22.4101352 131.534849,20.1989925 128.420813,20.1989925" id="Fill-29" fill="#878786"></path>
                <path d="M187.592868,31.2788232 C187.592868,32.7730157 186.378145,33.9880301 184.883303,33.9880301 L182.347831,33.9880301 C180.854298,33.9880301 179.638266,32.7730157 179.638266,31.2788232 L179.638266,27.8408697 C179.638266,26.3427451 180.854298,25.1277306 182.347831,25.1277306 L187.592868,25.1277306 L187.592868,31.2788232 Z M187.585014,18.7249847 L187.592868,18.7249847 L187.592868,22.172113 L182.347831,22.172113 C179.228559,22.172113 176.691778,24.713551 176.691778,27.8408697 L176.691778,31.2788232 C176.691778,34.4022098 179.228559,36.9397157 182.347831,36.9397157 L184.883303,36.9397157 C188.005193,36.9397157 190.540665,34.4022098 190.540665,31.2788232 L190.540665,22.1681809 L190.540665,18.7249847 L190.540665,15.7667456 C188.908381,15.7667456 187.585014,17.0918584 187.585014,18.7249847 L187.585014,18.7249847 Z" id="Fill-30" fill="#878786"></path>
                <path d="M159.548478,20.1954536 L156.592827,20.1954536 L156.592827,23.1576247 C158.227729,23.1576247 159.548478,21.8285798 159.548478,20.1954536" id="Fill-31" fill="#878786"></path>
                <path d="M157.177151,33.9884233 C156.838128,33.9884233 156.012169,33.0368586 156.012169,31.2792164 L156.012169,23.158149 L156.593351,23.158149 L156.593351,20.1985993 L156.012169,20.1985993 L156.012169,18.7253779 L156.016095,18.7253779 C156.016095,17.0922517 154.69011,15.7671388 153.061753,15.7671388 L153.061753,18.7253779 L153.061753,20.1985993 L151.06034,20.1985993 L151.06034,23.158149 L153.061753,23.158149 L153.061753,31.2792164 C153.061753,34.4550308 154.86813,36.9401089 157.177151,36.9401089 L159.821267,36.9401089 L159.821267,33.9884233 L157.177151,33.9884233 Z" id="Fill-32" fill="#878786"></path>
                <path d="M172.206073,20.1992546 L172.206073,23.1574936 L172.213927,23.1574936 L172.170731,33.9851466 L167.950616,33.9851466 C166.454465,33.9851466 165.244978,32.7688214 165.244978,31.2746289 L165.244978,23.1574936 C165.244978,21.5243674 163.928156,20.1992546 162.293254,20.1992546 L162.293254,23.1574936 L162.293254,31.2746289 C162.293254,34.3980156 164.831344,36.9394535 167.950616,36.9394535 L171.469124,36.9394535 L175.161724,36.9394535 L175.161724,23.1574936 C175.157797,21.5243674 173.840975,20.1992546 172.206073,20.1992546" id="Fill-33" fill="#878786"></path>
                <path d="M144.966961,27.0881374 L141.525682,27.0881374 C140.062256,27.0881374 138.820044,26.1863791 138.820044,25.1194733 C138.820044,24.0512567 140.062256,23.1547412 141.525682,23.1547412 L146.194773,23.1547412 L146.194773,23.1573626 C147.829675,23.1573626 149.145188,21.8283176 149.145188,20.1951914 L146.194773,20.1951914 L141.525682,20.1951914 C138.40641,20.1951914 135.86832,22.4063342 135.86832,25.1194733 C135.86832,27.8365444 138.40641,30.0437551 141.525682,30.0437551 L144.966961,30.0437551 C146.431697,30.0437551 147.672599,30.9468241 147.672599,32.0124193 C147.672599,33.0793251 146.431697,33.9810834 144.966961,33.9810834 L138.823971,33.9810834 L135.86832,33.9810834 C135.86832,35.6142096 137.18907,36.9406332 138.823971,36.9406332 L138.823971,36.9367011 L144.966961,36.9367011 C148.082306,36.9367011 150.624323,34.7294904 150.624323,32.0124193 C150.624323,29.2992802 148.082306,27.0881374 144.966961,27.0881374" id="Fill-34" fill="#878786"></path>
                <path d="M196.154831,22.3202216 L196.154831,22.0934713 L196.154831,20.2178665 C194.573597,20.2178665 193.292117,21.006905 193.210961,22.0004119 L193.203107,22.0082761 L193.203107,22.0593932 C193.203107,22.0711895 193.19918,22.081675 193.19918,22.0934713 L193.203107,22.0934713 L193.203107,22.3202216 L193.203107,24.1997584 C194.838009,24.1997584 196.158758,23.3609135 196.158758,22.3202216 L196.154831,22.3202216 Z" id="Fill-35" fill="#878786"></path>
            </g>
        </g>
    </g>
</svg>